solid OpenSCAD_Model
  facet normal -1 0 0
    outer loop
      vertex 7.5 0 0
      vertex 7.5 7.2 0.0999994
      vertex 7.5 7.2 0
    endloop
  endfacet
  facet normal -1 -0 0
    outer loop
      vertex 7.5 7.2 0.0999994
      vertex 7.5 0 0
      vertex 7.5 0 0.0999994
    endloop
  endfacet
  facet normal 0 -1 0
    outer loop
      vertex 3.5 7.2 0
      vertex 7.5 7.2 0.0999994
      vertex 3.5 7.2 0.0999994
    endloop
  endfacet
  facet normal 0 -1 -0
    outer loop
      vertex 7.5 7.2 0.0999994
      vertex 3.5 7.2 0
      vertex 7.5 7.2 0
    endloop
  endfacet
  facet normal 1 -0 0
    outer loop
      vertex 3.5 0 0.0999994
      vertex 3.5 7.2 0
      vertex 3.5 7.2 0.0999994
    endloop
  endfacet
  facet normal 1 0 0
    outer loop
      vertex 3.5 7.2 0
      vertex 3.5 0 0.0999994
      vertex 3.5 0 0
    endloop
  endfacet
  facet normal 1 -0 0
    outer loop
      vertex 1 0 0.0999994
      vertex 1 7.2 0
      vertex 1 7.2 0.0999994
    endloop
  endfacet
  facet normal 1 0 0
    outer loop
      vertex 1 7.2 0
      vertex 1 0 0.0999994
      vertex 1 0 0
    endloop
  endfacet
  facet normal -1 0 0
    outer loop
      vertex 3 0 0
      vertex 3 7.2 0.0999994
      vertex 3 7.2 0
    endloop
  endfacet
  facet normal -1 -0 0
    outer loop
      vertex 3 7.2 0.0999994
      vertex 3 0 0
      vertex 3 0 0.0999994
    endloop
  endfacet
  facet normal 0 -1 0
    outer loop
      vertex 1 7.2 0
      vertex 3 7.2 0.0999994
      vertex 1 7.2 0.0999994
    endloop
  endfacet
  facet normal 0 -1 -0
    outer loop
      vertex 3 7.2 0.0999994
      vertex 1 7.2 0
      vertex 3 7.2 0
    endloop
  endfacet
  facet normal -1 0 0
    outer loop
      vertex 0.4 0 0
      vertex 0.4 9 0.0999994
      vertex 0.4 9 0
    endloop
  endfacet
  facet normal -1 -0 0
    outer loop
      vertex 0.4 9 0.0999994
      vertex 0.4 0 0
      vertex 0.4 0 0.0999994
    endloop
  endfacet
  facet normal 0 0 1
    outer loop
      vertex 11 9 0.0999994
      vertex 7.5 7.2 0.0999994
      vertex 11 0 0.0999994
    endloop
  endfacet
  facet normal -0 0 1
    outer loop
      vertex 0.4 9 0.0999994
      vertex 7.5 7.2 0.0999994
      vertex 11 9 0.0999994
    endloop
  endfacet
  facet normal 0 0 1
    outer loop
      vertex 3.5 7.2 0.0999994
      vertex 3 7.2 0.0999994
      vertex 3.5 0 0.0999994
    endloop
  endfacet
  facet normal 0 0 1
    outer loop
      vertex 7.5 7.2 0.0999994
      vertex 0.4 9 0.0999994
      vertex 3.5 7.2 0.0999994
    endloop
  endfacet
  facet normal 0 0 1
    outer loop
      vertex 3.5 7.2 0.0999994
      vertex 0.4 9 0.0999994
      vertex 3 7.2 0.0999994
    endloop
  endfacet
  facet normal 0 0 1
    outer loop
      vertex 3 7.2 0.0999994
      vertex 0.4 9 0.0999994
      vertex 1 7.2 0.0999994
    endloop
  endfacet
  facet normal 0 0 1
    outer loop
      vertex 0.4 0 0.0999994
      vertex 1 7.2 0.0999994
      vertex 0.4 9 0.0999994
    endloop
  endfacet
  facet normal 0 0 1
    outer loop
      vertex 1 7.2 0.0999994
      vertex 0.4 0 0.0999994
      vertex 1 0 0.0999994
    endloop
  endfacet
  facet normal 0 0 1
    outer loop
      vertex 11 0 0.0999994
      vertex 7.5 7.2 0.0999994
      vertex 7.5 0 0.0999994
    endloop
  endfacet
  facet normal 0 0 1
    outer loop
      vertex 3.5 0 0.0999994
      vertex 3 7.2 0.0999994
      vertex 3 0 0.0999994
    endloop
  endfacet
  facet normal 1 -0 0
    outer loop
      vertex 11 0 0.0999994
      vertex 11 9 0
      vertex 11 9 0.0999994
    endloop
  endfacet
  facet normal 1 0 0
    outer loop
      vertex 11 9 0
      vertex 11 0 0.0999994
      vertex 11 0 0
    endloop
  endfacet
  facet normal 0 0 -1
    outer loop
      vertex 1 0 0
      vertex 0.4 0 0
      vertex 1 7.2 0
    endloop
  endfacet
  facet normal 0 0 -1
    outer loop
      vertex 3.5 0 0
      vertex 3 0 0
      vertex 3.5 7.2 0
    endloop
  endfacet
  facet normal 0 0 -1
    outer loop
      vertex 7.5 7.2 0
      vertex 11 0 0
      vertex 7.5 0 0
    endloop
  endfacet
  facet normal 0 0 -1
    outer loop
      vertex 11 0 0
      vertex 7.5 7.2 0
      vertex 11 9 0
    endloop
  endfacet
  facet normal 0 0 -1
    outer loop
      vertex 0.4 9 0
      vertex 7.5 7.2 0
      vertex 3.5 7.2 0
    endloop
  endfacet
  facet normal 0 0 -1
    outer loop
      vertex 3 7.2 0
      vertex 3.5 7.2 0
      vertex 3 0 0
    endloop
  endfacet
  facet normal 0 0 -1
    outer loop
      vertex 0.4 9 0
      vertex 3.5 7.2 0
      vertex 3 7.2 0
    endloop
  endfacet
  facet normal 0 0 -1
    outer loop
      vertex 0.4 9 0
      vertex 3 7.2 0
      vertex 1 7.2 0
    endloop
  endfacet
  facet normal 0 0 -1
    outer loop
      vertex 7.5 7.2 0
      vertex 0.4 9 0
      vertex 11 9 0
    endloop
  endfacet
  facet normal 0 0 -1
    outer loop
      vertex 0.4 9 0
      vertex 1 7.2 0
      vertex 0.4 0 0
    endloop
  endfacet
  facet normal 0 -1 0
    outer loop
      vertex 0.4 0 0
      vertex 1 0 0.0999994
      vertex 0.4 0 0.0999994
    endloop
  endfacet
  facet normal 0 -1 -0
    outer loop
      vertex 1 0 0.0999994
      vertex 0.4 0 0
      vertex 1 0 0
    endloop
  endfacet
  facet normal 0 -1 0
    outer loop
      vertex 7.5 0 0
      vertex 11 0 0.0999994
      vertex 7.5 0 0.0999994
    endloop
  endfacet
  facet normal 0 -1 -0
    outer loop
      vertex 11 0 0.0999994
      vertex 7.5 0 0
      vertex 11 0 0
    endloop
  endfacet
  facet normal 0 -1 0
    outer loop
      vertex 3 0 0
      vertex 3.5 0 0.0999994
      vertex 3 0 0.0999994
    endloop
  endfacet
  facet normal 0 -1 -0
    outer loop
      vertex 3.5 0 0.0999994
      vertex 3 0 0
      vertex 3.5 0 0
    endloop
  endfacet
  facet normal 0 1 -0
    outer loop
      vertex 11 9 0
      vertex 0.4 9 0.0999994
      vertex 11 9 0.0999994
    endloop
  endfacet
  facet normal 0 1 0
    outer loop
      vertex 0.4 9 0.0999994
      vertex 11 9 0
      vertex 0.4 9 0
    endloop
  endfacet
endsolid OpenSCAD_Model
